<svg width="264" height="88" viewBox="0 0 264 88" fill="none" xmlns="http://www.w3.org/2000/svg">
<path d="M67 19H53V20C53 20.2652 52.8946 20.5196 52.7071 20.7071C52.5196 20.8946 52.2652 21 52 21H51C50.7348 21 50.4804 20.8946 50.2929 20.7071C50.1054 20.5196 50 20.2652 50 20V10L52.48 4.212C52.6343 3.852 52.891 3.54524 53.2181 3.32978C53.5452 3.11432 53.9283 2.99965 54.32 3H65.68C66.0713 3.00004 66.4541 3.1149 66.7808 3.33033C67.1075 3.54577 67.3638 3.85231 67.518 4.212L70 10V20C70 20.2652 69.8946 20.5196 69.7071 20.7071C69.5196 20.8946 69.2652 21 69 21H68C67.7348 21 67.4804 20.8946 67.2929 20.7071C67.1054 20.5196 67 20.2652 67 20V19ZM68 12H52V17H68V12ZM52.176 10H67.824L65.681 5H54.32L52.176 10ZM54.5 16C54.1022 16 53.7206 15.842 53.4393 15.5607C53.158 15.2794 53 14.8978 53 14.5C53 14.1022 53.158 13.7206 53.4393 13.4393C53.7206 13.158 54.1022 13 54.5 13C54.8978 13 55.2794 13.158 55.5607 13.4393C55.842 13.7206 56 14.1022 56 14.5C56 14.8978 55.842 15.2794 55.5607 15.5607C55.2794 15.842 54.8978 16 54.5 16ZM65.5 16C65.1022 16 64.7206 15.842 64.4393 15.5607C64.158 15.2794 64 14.8978 64 14.5C64 14.1022 64.158 13.7206 64.4393 13.4393C64.7206 13.158 65.1022 13 65.5 13C65.8978 13 66.2794 13.158 66.5607 13.4393C66.842 13.7206 67 14.1022 67 14.5C67 14.8978 66.842 15.2794 66.5607 15.5607C66.2794 15.842 65.8978 16 65.5 16Z" fill="#41414D"/>
<path d="M19 21.9999H5C4.73478 21.9999 4.48043 21.8946 4.29289 21.707C4.10536 21.5195 4 21.2651 4 20.9999V11.9999H1L11.327 2.61192C11.5111 2.4444 11.7511 2.35156 12 2.35156C12.2489 2.35156 12.4889 2.4444 12.673 2.61192L23 11.9999H20V20.9999C20 21.2651 19.8946 21.5195 19.7071 21.707C19.5196 21.8946 19.2652 21.9999 19 21.9999ZM6 19.9999H18V10.1569L12 4.70292L6 10.1569V19.9999Z" fill="#41414D"/>
<path d="M155.999 18.1546C159.829 18.1546 163.178 19.7458 165 22.12L163.074 23C161.591 21.3027 158.977 20.1752 155.999 20.1752C153.022 20.1752 150.408 21.3027 148.925 23L147 22.119C148.822 19.7448 152.17 18.1546 155.999 18.1546ZM155.999 1C157.386 1 158.716 1.53221 159.697 2.47956C160.677 3.4269 161.228 4.71178 161.228 6.05153V11.0824C161.228 12.3842 160.708 13.6356 159.776 14.5759C158.844 15.5161 157.573 16.0724 156.226 16.1289L155.999 16.134C154.613 16.134 153.283 15.6018 152.302 14.6544C151.322 13.7071 150.771 12.4222 150.771 11.0824V6.05153C150.771 4.74979 151.291 3.49832 152.223 2.55812C153.155 1.61791 154.426 1.06155 155.773 1.00505L155.999 1ZM155.999 3.02061C155.199 3.02057 154.429 3.31595 153.847 3.84632C153.265 4.37668 152.914 5.10195 152.868 5.87371L152.862 6.05153V11.0824C152.862 11.8714 153.179 12.6296 153.748 13.1958C154.316 13.7621 155.091 14.0918 155.907 14.115C156.724 14.1381 157.517 13.8529 158.119 13.3198C158.721 12.7867 159.084 12.0479 159.131 11.2603L159.137 11.0824V6.05153C159.137 5.24768 158.806 4.47675 158.218 3.90834C157.629 3.33994 156.832 3.02061 155.999 3.02061Z" fill="#41414D"/>
<path d="M113 4H117C117.265 4 117.52 4.10536 117.707 4.29289C117.895 4.48043 118 4.73478 118 5V21C118 21.2652 117.895 21.5196 117.707 21.7071C117.52 21.8946 117.265 22 117 22H99C98.7348 22 98.4804 21.8946 98.2929 21.7071C98.1054 21.5196 98 21.2652 98 21V5C98 4.73478 98.1054 4.48043 98.2929 4.29289C98.4804 4.10536 98.7348 4 99 4H103V2H105V4H111V2H113V4ZM111 6H105V8H103V6H100V10H116V6H113V8H111V6ZM116 12H100V20H116V12Z" fill="#41414D"/>
<g clip-path="url(#clip0_5886_1554)">
<path d="M12.5263 72H22L10.4211 89V80H2L12.5263 63V72ZM10.4211 74V70.22L5.71789 78H12.5263V82.394L18.0663 74H10.4211Z" fill="#41414D"/>
</g>
<path d="M69 67V69C69 78.627 63.627 83 57 83H53.243C53.08 83.912 53 84.907 53 86H51C51 84.637 51.116 83.4 51.346 82.268C51.116 80.974 51 79.218 51 77C51 71.477 55.477 67 61 67C63 67 65 68 69 67ZM61 69C56.582 69 53 72.582 53 77C53 77.362 53.003 77.711 53.01 78.046C54.264 76.068 56.101 74.505 58.504 73.132L59.496 74.868C56.641 76.5 54.747 78.354 53.776 81H57C63.015 81 66.871 77.027 66.997 69.388C65.625 69.521 64.35 69.436 62.777 69.2C61.627 69.027 61.401 69 61 69Z" fill="#41414D"/>
<path d="M108 67.1L103.05 72.05C102.071 73.029 101.404 74.2763 101.134 75.6341C100.864 76.9919 101.003 78.3994 101.533 79.6784C102.063 80.9575 102.96 82.0507 104.111 82.8198C105.262 83.5889 106.616 83.9995 108 83.9995C109.384 83.9995 110.738 83.5889 111.889 82.8198C113.04 82.0507 113.937 80.9575 114.467 79.6784C114.997 78.3994 115.136 76.9919 114.866 75.6341C114.596 74.2763 113.929 73.029 112.95 72.05L108 67.1ZM108 64.272L114.364 70.636C115.623 71.8946 116.48 73.4983 116.827 75.2441C117.174 76.9899 116.996 78.7995 116.315 80.4441C115.634 82.0886 114.48 83.4942 113 84.4831C111.52 85.4721 109.78 85.9999 108 85.9999C106.22 85.9999 104.48 85.4721 103 84.4831C101.52 83.4942 100.366 82.0886 99.6851 80.4441C99.0039 78.7995 98.8257 76.9899 99.1729 75.2441C99.5202 73.4983 100.377 71.8946 101.636 70.636L108 64.272V64.272Z" fill="#41414D"/>
<path d="M150.17 82C150.377 81.4145 150.76 80.9074 151.267 80.5488C151.773 80.1902 152.379 79.9976 153 79.9976C153.621 79.9976 154.227 80.1902 154.733 80.5488C155.24 80.9074 155.623 81.4145 155.83 82H166V84H155.83C155.623 84.5855 155.24 85.0926 154.733 85.4512C154.227 85.8099 153.621 86.0025 153 86.0025C152.379 86.0025 151.773 85.8099 151.267 85.4512C150.76 85.0926 150.377 84.5855 150.17 84H146V82H150.17ZM156.17 75C156.377 74.4145 156.76 73.9074 157.267 73.5488C157.773 73.1902 158.379 72.9976 159 72.9976C159.621 72.9976 160.227 73.1902 160.733 73.5488C161.24 73.9074 161.623 74.4145 161.83 75H166V77H161.83C161.623 77.5855 161.24 78.0926 160.733 78.4512C160.227 78.8099 159.621 79.0025 159 79.0025C158.379 79.0025 157.773 78.8099 157.267 78.4512C156.76 78.0926 156.377 77.5855 156.17 77H146V75H156.17ZM150.17 68C150.377 67.4145 150.76 66.9074 151.267 66.5488C151.773 66.1902 152.379 65.9976 153 65.9976C153.621 65.9976 154.227 66.1902 154.733 66.5488C155.24 66.9074 155.623 67.4145 155.83 68H166V70H155.83C155.623 70.5855 155.24 71.0926 154.733 71.4512C154.227 71.8099 153.621 72.0025 153 72.0025C152.379 72.0025 151.773 71.8099 151.267 71.4512C150.76 71.0926 150.377 70.5855 150.17 70H146V68H150.17ZM153 70C153.265 70 153.52 69.8947 153.707 69.7071C153.895 69.5196 154 69.2652 154 69C154 68.7348 153.895 68.4804 153.707 68.2929C153.52 68.1054 153.265 68 153 68C152.735 68 152.48 68.1054 152.293 68.2929C152.105 68.4804 152 68.7348 152 69C152 69.2652 152.105 69.5196 152.293 69.7071C152.48 69.8947 152.735 70 153 70ZM159 77C159.265 77 159.52 76.8947 159.707 76.7071C159.895 76.5196 160 76.2652 160 76C160 75.7348 159.895 75.4804 159.707 75.2929C159.52 75.1054 159.265 75 159 75C158.735 75 158.48 75.1054 158.293 75.2929C158.105 75.4804 158 75.7348 158 76C158 76.2652 158.105 76.5196 158.293 76.7071C158.48 76.8947 158.735 77 159 77ZM153 84C153.265 84 153.52 83.8947 153.707 83.7071C153.895 83.5196 154 83.2652 154 83C154 82.7348 153.895 82.4804 153.707 82.2929C153.52 82.1054 153.265 82 153 82C152.735 82 152.48 82.1054 152.293 82.2929C152.105 82.4804 152 82.7348 152 83C152 83.2652 152.105 83.5196 152.293 83.7071C152.48 83.8947 152.735 84 153 84Z" fill="#41414D"/>
<path d="M243 3H261C261.265 3 261.52 3.10536 261.707 3.29289C261.895 3.48043 262 3.73478 262 4V20C262 20.2652 261.895 20.5196 261.707 20.7071C261.52 20.8946 261.265 21 261 21H243C242.735 21 242.48 20.8946 242.293 20.7071C242.105 20.5196 242 20.2652 242 20V4C242 3.73478 242.105 3.48043 242.293 3.29289C242.48 3.10536 242.735 3 243 3ZM260 7.238L252.072 14.338L244 7.216V19H260V7.238ZM244.511 5L252.061 11.662L259.502 5H244.511Z" fill="#41414D"/>
<path d="M198 8V7C198 5.4087 198.632 3.88258 199.757 2.75736C200.883 1.63214 202.409 1 204 1C205.591 1 207.117 1.63214 208.243 2.75736C209.368 3.88258 210 5.4087 210 7V8H212C212.265 8 212.52 8.10536 212.707 8.29289C212.895 8.48043 213 8.73478 213 9V21C213 21.2652 212.895 21.5196 212.707 21.7071C212.52 21.8946 212.265 22 212 22H196C195.735 22 195.48 21.8946 195.293 21.7071C195.105 21.5196 195 21.2652 195 21V9C195 8.73478 195.105 8.48043 195.293 8.29289C195.48 8.10536 195.735 8 196 8H198ZM211 10H197V20H211V10ZM203 15.732C202.619 15.5119 202.321 15.1721 202.152 14.7653C201.984 14.3586 201.954 13.9076 202.068 13.4823C202.182 13.057 202.433 12.6813 202.782 12.4132C203.132 12.1452 203.56 11.9999 204 11.9999C204.44 11.9999 204.868 12.1452 205.218 12.4132C205.567 12.6813 205.818 13.057 205.932 13.4823C206.046 13.9076 206.016 14.3586 205.848 14.7653C205.679 15.1721 205.381 15.5119 205 15.732V18H203V15.732ZM200 8H208V7C208 5.93913 207.579 4.92172 206.828 4.17157C206.078 3.42143 205.061 3 204 3C202.939 3 201.922 3.42143 201.172 4.17157C200.421 4.92172 200 5.93913 200 7V8Z" fill="#41414D"/>
<path d="M210.031 80.617L214.314 84.899L212.899 86.314L208.617 82.031C207.024 83.3082 205.042 84.0029 203 84C198.032 84 194 79.968 194 75C194 70.032 198.032 66 203 66C207.968 66 212 70.032 212 75C212.003 77.042 211.308 79.0237 210.031 80.617ZM208.025 79.875C209.294 78.5699 210.003 76.8204 210 75C210 71.132 206.867 68 203 68C199.132 68 196 71.132 196 75C196 78.867 199.132 82 203 82C204.82 82.0029 206.57 81.2941 207.875 80.025L208.025 79.875Z" fill="#41414D"/>
<path d="M249.828 69L247.828 71H244V83H260V71H256.172L254.172 69H249.828ZM249 67H255L257 69H261C261.265 69 261.52 69.1054 261.707 69.2929C261.895 69.4804 262 69.7348 262 70V84C262 84.2652 261.895 84.5196 261.707 84.7071C261.52 84.8946 261.265 85 261 85H243C242.735 85 242.48 84.8946 242.293 84.7071C242.105 84.5196 242 84.2652 242 84V70C242 69.7348 242.105 69.4804 242.293 69.2929C242.48 69.1054 242.735 69 243 69H247L249 67ZM252 82C250.541 82 249.142 81.4205 248.111 80.3891C247.079 79.3576 246.5 77.9587 246.5 76.5C246.5 75.0413 247.079 73.6424 248.111 72.6109C249.142 71.5795 250.541 71 252 71C253.459 71 254.858 71.5795 255.889 72.6109C256.921 73.6424 257.5 75.0413 257.5 76.5C257.5 77.9587 256.921 79.3576 255.889 80.3891C254.858 81.4205 253.459 82 252 82ZM252 80C252.928 80 253.818 79.6313 254.475 78.9749C255.131 78.3185 255.5 77.4283 255.5 76.5C255.5 75.5717 255.131 74.6815 254.475 74.0251C253.818 73.3687 252.928 73 252 73C251.072 73 250.182 73.3687 249.525 74.0251C248.869 74.6815 248.5 75.5717 248.5 76.5C248.5 77.4283 248.869 78.3185 249.525 78.9749C250.182 79.6313 251.072 80 252 80Z" fill="black"/>
<defs>
<clipPath id="clip0_5886_1554">
<rect width="24" height="24" fill="white" transform="translate(0 64)"/>
</clipPath>
</defs>
</svg>
