<svg width="60" height="68" viewBox="0 0 60 68" fill="none" xmlns="http://www.w3.org/2000/svg">
<path d="M60 3.97317V64.0265C59.993 64.9019 59.6419 65.7394 59.0226 66.3581C58.4033 66.9768 57.5654 67.3271 56.69 67.3332H3.31C2.43271 67.3332 1.5913 66.9849 0.970654 66.3649C0.350005 65.7449 0.000883474 64.9038 0 64.0265V3.97317C0.00698217 3.09777 0.35806 2.26026 0.977392 1.64155C1.59672 1.02284 2.43459 0.672604 3.31 0.666504H56.69C58.5167 0.666504 60 2.1465 60 3.97317ZM53.3333 7.33317H6.66667V60.6665H53.3333V7.33317ZM27.6433 37.7365L41.7867 23.5965L46.5 28.3098L27.6433 47.1665L14.6767 34.1998L19.3933 29.4865L27.6433 37.7365Z" fill="#29292E"/>
<path d="M27.6434 37.7367L41.7868 23.5967L46.5001 28.31L27.6434 47.1667L14.6768 34.2L19.3934 29.4867L27.6434 37.7367Z" fill="#03B352"/>
</svg>
