<svg width="24" height="24" viewBox="0 0 24 24" fill="#41414D" xmlns="http://www.w3.org/2000/svg">
<path d="M12 0C18.6276 0 24 5.3724 24 12C24 18.6276 18.6276 24 12 24C5.3724 24 0 18.6276 0 12C0 5.3724 5.3724 0 12 0ZM12 2.4C6.6984 2.4 2.4 6.6984 2.4 12C2.4 17.3016 6.6984 21.6 12 21.6C17.3016 21.6 21.6 17.3016 21.6 12C21.6 6.6984 17.3016 2.4 12 2.4ZM16.5996 6.4044C16.884 6.2052 17.2704 6.2388 17.5152 6.4848C17.76 6.7296 17.7912 7.116 17.5908 7.3968C14.9748 11.052 13.5348 13.0104 13.2732 13.2732C12.57 13.9752 11.43 13.9752 10.7268 13.2732C10.0248 12.57 10.0248 11.43 10.7268 10.7268C11.1756 10.2792 13.1328 8.838 16.5996 6.4044ZM18.6 10.8C19.2624 10.8 19.8 11.3376 19.8 12C19.8 12.6624 19.2624 13.2 18.6 13.2C17.9376 13.2 17.4 12.6624 17.4 12C17.4 11.3376 17.9376 10.8 18.6 10.8ZM5.4 10.8C6.0624 10.8 6.6 11.3376 6.6 12C6.6 12.6624 6.0624 13.2 5.4 13.2C4.7376 13.2 4.2 12.6624 4.2 12C4.2 11.3376 4.7376 10.8 5.4 10.8ZM8.1816 6.4848C8.6496 6.9528 8.6496 7.7124 8.1816 8.1816C7.7136 8.6496 6.9528 8.6496 6.4848 8.1816C6.0168 7.7136 6.0168 6.9528 6.4848 6.4848C6.9528 6.0168 7.7124 6.0168 8.1816 6.4848ZM12 4.2C12.6624 4.2 13.2 4.7376 13.2 5.4C13.2 6.0624 12.6624 6.6 12 6.6C11.3376 6.6 10.8 6.0624 10.8 5.4C10.8 4.7376 11.3376 4.2 12 4.2Z" />
</svg>
